<svg width="1920" height="314" viewBox="0 0 1920 314" fill="none" xmlns="http://www.w3.org/2000/svg">
<g clip-path="url(#clip0_5_2)">
<path d="M30.505 230.457H349.495C355.189 230.457 360.883 228.182 365.44 223.643C369.997 219.103 372.28 213.426 372.28 207.758C372.28 200.945 369.997 196.405 365.44 191.865C360.883 187.326 356.326 185.052 349.495 185.052H347.212C342.655 154.411 330.13 127.156 309.628 103.329C289.117 79.4941 264.058 63.601 234.433 54.5217C235.57 52.2476 235.57 49.9821 235.57 48.845C235.57 36.3545 231.013 25.0097 221.899 17.0589C213.922 7.97958 202.534 3.43994 190 3.43994C177.466 3.43994 166.078 7.97959 158.101 17.0675C150.124 26.1381 144.43 36.3545 144.43 48.8363V55.6501C115.187 63.7182 89.0107 80.3176 69.2438 103.329C48.733 127.165 37.3448 154.402 32.7878 185.052H30.505C27.085 185.052 24.8109 186.18 21.391 187.326C17.9711 188.454 15.6969 190.728 14.5598 191.865C12.277 194.131 11.1399 196.405 10.0028 198.67C8.57852 201.49 7.79878 204.592 7.71997 207.75C7.71997 213.426 10.0028 219.103 14.5598 223.643C19.1168 228.182 24.8022 230.457 30.505 230.457ZM190 26.1381C195.694 26.1381 201.397 28.4123 205.954 32.9519C210.511 37.4916 212.785 42.0312 212.785 48.8363V49.9821C208.228 49.9821 204.808 48.845 201.397 48.845H178.612C175.192 48.845 170.626 49.9734 167.215 49.9734V48.845C167.215 43.1683 169.498 37.4916 174.055 32.9519C178.612 28.4123 184.297 26.1381 190 26.1381ZM94.303 147.597C101.143 136.244 111.394 126.028 121.645 116.948C131.896 107.869 145.567 102.192 159.238 98.7897H162.658C166.078 98.7897 168.352 99.9181 170.635 102.192C172.909 104.458 174.055 106.732 174.055 110.134C174.055 112.409 174.055 113.546 172.909 115.811C171.772 116.94 170.635 119.214 169.498 120.351C168.352 121.488 166.078 122.625 164.941 122.625C158.101 124.89 151.27 127.165 144.43 131.704C138.102 134.924 132.332 139.138 127.339 144.186C121.882 148.637 117.254 154.018 113.668 160.079C112.531 161.208 112.531 162.353 111.394 163.482C110.257 164.619 109.111 165.756 107.974 165.756C106.837 166.884 104.554 166.884 103.417 166.884C99.9971 166.884 97.7229 165.756 95.4401 163.482C93.1659 161.216 92.0288 158.942 92.0288 155.54C92.0288 152.137 93.1572 149.863 94.303 147.597ZM349.495 253.155H30.505C24.8109 253.155 19.1168 255.429 14.5598 259.969C10.0028 264.508 7.71997 269.048 7.71997 275.853C7.71997 282.667 9.99413 287.206 14.5598 291.746C19.1081 296.286 24.8022 298.56 30.505 298.56H349.495C355.189 298.56 360.883 296.286 365.44 291.746C369.997 287.206 372.28 281.53 372.28 275.862C372.28 269.048 370.006 264.508 365.44 259.969C360.892 255.429 355.198 253.155 349.495 253.155Z" fill="#EE5A24"/>
<path d="M541.4 169.68C555.907 171.387 566.253 176.293 572.44 184.4C578.627 192.293 581.72 201.893 581.72 213.2C581.72 220.24 580.653 226.96 578.52 233.36C576.387 239.547 573.827 244.88 570.84 249.36C567.853 253.627 565.293 256.4 563.16 257.68C554.627 263.227 528.6 266 485.08 266H423V83.6H498.2C515.267 83.6 529.027 84.56 539.48 86.48C550.147 88.1867 558.787 92.24 565.4 98.64C572.013 104.827 575.32 114.32 575.32 127.12C575.32 138.213 572.547 147.173 567 154C561.667 160.827 553.133 165.52 541.4 168.08V169.68ZM515.8 122.32C513.667 120.187 511.107 118.907 508.12 118.48C505.347 117.84 500.867 117.52 494.68 117.52C488.493 117.52 483.8 117.627 480.6 117.84V156.88H483.8C484.867 156.88 489.347 156.88 497.24 156.88C505.133 156.88 510.36 156.347 512.92 155.28C514.84 154.427 516.547 152.187 518.04 148.56C519.747 144.933 520.6 140.987 520.6 136.72C520.6 130.32 519 125.52 515.8 122.32ZM521.24 229.2C522.733 227.92 523.907 225.573 524.76 222.16C525.827 218.533 526.36 214.907 526.36 211.28C526.36 206.8 525.72 202.64 524.44 198.8C523.373 194.747 521.88 191.867 519.96 190.16C518.04 188.24 515.267 186.96 511.64 186.32C508.227 185.68 502.36 185.36 494.04 185.36C488.707 185.36 484.227 185.467 480.6 185.68V232.08C490.627 232.293 499.587 232.187 507.48 231.76C515.373 231.12 519.96 230.267 521.24 229.2ZM603.893 74L658.613 71.76V266H603.893V74ZM756.785 270.16C731.185 270.16 711.985 264.187 699.185 252.24C686.598 240.08 680.305 220.987 680.305 194.96C680.305 180.667 681.585 168.187 684.145 157.52C686.918 146.64 690.225 139.067 694.065 134.8C698.972 129.253 707.932 124.667 720.945 121.04C734.172 117.413 746.545 115.6 758.065 115.6C785.585 115.6 805.212 121.467 816.945 133.2C828.678 144.933 834.545 163.707 834.545 189.52C834.545 217.253 828.252 237.627 815.665 250.64C803.078 263.653 783.452 270.16 756.785 270.16ZM757.745 232.72C766.065 232.72 771.505 229.84 774.065 224.08C776.625 218.107 777.905 207.653 777.905 192.72C777.905 182.267 777.372 174.267 776.305 168.72C775.238 162.96 773.212 158.8 770.225 156.24C767.452 153.467 763.078 152.08 757.105 152.08C748.572 152.08 743.665 152.827 742.385 154.32C740.678 155.813 739.292 160.507 738.225 168.4C737.158 176.293 736.625 184.507 736.625 193.04C736.625 207.547 738.012 217.787 740.785 223.76C743.772 229.733 749.425 232.72 757.745 232.72ZM979.273 261.52C961.993 267.28 942.686 270.16 921.353 270.16C897.459 270.16 879.539 264.187 867.593 252.24C855.859 240.08 849.993 221.2 849.993 195.6C849.993 183.013 851.699 170.64 855.113 158.48C858.526 146.107 862.153 137.787 865.993 133.52C870.473 128.613 879.219 124.453 892.233 121.04C905.459 117.627 919.113 115.92 933.193 115.92C947.913 115.92 962.739 117.2 977.673 119.76C977.246 125.093 976.499 131.387 975.433 138.64C974.579 145.68 973.619 151.973 972.553 157.52C959.326 156.667 946.846 156.24 935.113 156.24C923.593 156.24 916.233 156.88 913.033 158.16C911.326 158.8 909.726 163.173 908.233 171.28C906.953 179.387 906.313 186.96 906.313 194C906.313 203.387 907.593 210.64 910.153 215.76C912.926 220.667 917.193 224.08 922.953 226C928.713 227.92 936.499 228.88 946.313 228.88C950.579 228.88 959.966 228.453 974.473 227.6L979.273 261.52ZM1154.1 266H1094.58L1064.18 206.16C1061.19 199.973 1057.25 196.027 1052.34 194.32V266H997.62V74L1052.34 71.76V180.88C1057.46 178.747 1061.83 174.373 1065.46 167.76L1092.66 118.8L1152.5 118.48L1121.46 168.4C1116.55 176.293 1111.22 182.587 1105.46 187.28C1110.37 192.613 1115.91 200.72 1122.1 211.6L1154.1 266ZM1403.83 266H1350.07L1345.91 165.52C1345.27 145.68 1344.52 130.64 1343.67 120.4H1342.71C1340.15 128.507 1337.16 141.093 1333.75 158.16L1332.15 166.16L1310.07 266H1256.31L1237.75 176.08L1234.55 160.08C1230.07 140.24 1226.97 127.013 1225.27 120.4H1224.31C1223.45 131.067 1222.71 148.453 1222.07 172.56C1221.85 174.053 1221.75 176.4 1221.75 179.6L1218.87 266H1164.79L1172.47 83.6H1263.99L1279.67 162.32L1283.51 183.44C1285.21 176.827 1286.81 169.467 1288.31 161.36L1303.03 83.6H1396.47L1403.83 266ZM1518.46 227.6C1523.8 227.6 1533.72 227.067 1548.22 226C1550.14 226 1553.66 225.787 1558.78 225.36L1563.58 258.32C1547.16 266 1525.82 269.84 1499.58 269.84C1475.05 269.84 1456.17 263.653 1442.94 251.28C1429.93 238.907 1423.42 220.24 1423.42 195.28C1423.42 182.48 1425.02 170.107 1428.22 158.16C1431.64 146.213 1435.48 137.893 1439.74 133.2C1444.22 128.507 1452.54 124.453 1464.7 121.04C1476.86 117.627 1488.92 115.92 1500.86 115.92C1520.06 115.92 1534.46 119.333 1544.06 126.16C1553.66 132.987 1559.96 142.48 1562.94 154.64C1565.93 166.587 1567.42 182.693 1567.42 202.96C1552.92 203.813 1538.73 204.24 1524.86 204.24H1479.42C1479.42 211.067 1480.81 216.187 1483.58 219.6C1486.57 223.013 1490.73 225.253 1496.06 226.32C1501.4 227.173 1508.86 227.6 1518.46 227.6ZM1482.62 154C1481.34 154.64 1480.38 157.413 1479.74 162.32C1479.1 167.227 1478.68 172.773 1478.46 178.96H1495.1C1505.13 178.96 1512.38 178.853 1516.86 178.64C1516.86 168.4 1515.37 161.147 1512.38 156.88C1509.61 152.613 1504.7 150.48 1497.66 150.48C1491.9 150.48 1486.89 151.653 1482.62 154ZM1729.08 128.08C1731 130.427 1732.39 136.293 1733.24 145.68C1734.31 155.067 1734.84 169.36 1734.84 188.56V266H1680.12V189.2V176.08C1680.12 169.253 1679.59 164.987 1678.52 163.28C1676.82 161.147 1672.87 160.08 1666.68 160.08C1663.7 160.08 1661.46 160.187 1659.96 160.4C1653.99 160.613 1647.8 162 1641.4 164.56V266H1586.68V118.8H1631.16L1637.24 143.44C1652.6 124.88 1670.95 115.6 1692.28 115.6C1699.96 115.6 1707.11 116.667 1713.72 118.8C1720.55 120.933 1725.67 124.027 1729.08 128.08ZM1907.32 118.8V266H1862.84L1856.76 241.36C1841.4 259.92 1823.05 269.2 1801.72 269.2C1794.04 269.2 1786.79 268.133 1779.96 266C1773.35 263.867 1768.33 260.773 1764.92 256.72C1763 254.373 1761.51 248.507 1760.44 239.12C1759.59 229.733 1759.16 215.44 1759.16 196.24V118.8H1813.88V195.6C1813.88 199.867 1813.99 204.88 1814.2 210.64C1814.41 216.4 1815.05 220.027 1816.12 221.52C1817.61 223.653 1821.88 224.72 1828.92 224.72L1834.04 224.4C1840.01 224.187 1846.2 222.8 1852.6 220.24V118.8H1907.32Z" fill="#EE5A24"/>
</g>
<defs>
<clipPath id="clip0_5_2">
<rect width="1920" height="314" fill="white"/>
</clipPath>
</defs>
</svg>
