<svg width="1661" height="314" viewBox="0 0 1661 314" fill="none" xmlns="http://www.w3.org/2000/svg">
<g clip-path="url(#clip0_2_4)">
<path d="M30.505 230.457H349.495C355.189 230.457 360.883 228.182 365.44 223.643C369.997 219.103 372.28 213.426 372.28 207.758C372.28 200.945 369.997 196.405 365.44 191.865C360.883 187.326 356.326 185.052 349.495 185.052H347.212C342.655 154.411 330.13 127.156 309.628 103.329C289.117 79.4941 264.058 63.601 234.433 54.5217C235.57 52.2476 235.57 49.9821 235.57 48.845C235.57 36.3545 231.013 25.0097 221.899 17.0589C213.922 7.97958 202.534 3.43994 190 3.43994C177.466 3.43994 166.078 7.97959 158.101 17.0675C150.124 26.1381 144.43 36.3545 144.43 48.8363V55.6501C115.187 63.7182 89.0107 80.3176 69.2438 103.329C48.733 127.165 37.3448 154.402 32.7878 185.052H30.505C27.085 185.052 24.8109 186.18 21.391 187.326C17.9711 188.454 15.6969 190.728 14.5598 191.865C12.277 194.131 11.1399 196.405 10.0028 198.67C8.57852 201.49 7.79878 204.592 7.71997 207.75C7.71997 213.426 10.0028 219.103 14.5598 223.643C19.1168 228.182 24.8022 230.457 30.505 230.457ZM190 26.1381C195.694 26.1381 201.397 28.4123 205.954 32.9519C210.511 37.4916 212.785 42.0312 212.785 48.8363V49.9821C208.228 49.9821 204.808 48.845 201.397 48.845H178.612C175.192 48.845 170.626 49.9734 167.215 49.9734V48.845C167.215 43.1683 169.498 37.4916 174.055 32.9519C178.612 28.4123 184.297 26.1381 190 26.1381ZM94.303 147.597C101.143 136.244 111.394 126.028 121.645 116.948C131.896 107.869 145.567 102.192 159.238 98.7897H162.658C166.078 98.7897 168.352 99.9181 170.635 102.192C172.909 104.458 174.055 106.732 174.055 110.134C174.055 112.409 174.055 113.546 172.909 115.811C171.772 116.94 170.635 119.214 169.498 120.351C168.352 121.488 166.078 122.625 164.941 122.625C158.101 124.89 151.27 127.165 144.43 131.704C138.102 134.924 132.332 139.138 127.339 144.186C121.882 148.637 117.254 154.018 113.668 160.079C112.531 161.208 112.531 162.353 111.394 163.482C110.257 164.619 109.111 165.756 107.974 165.756C106.837 166.884 104.554 166.884 103.417 166.884C99.9971 166.884 97.7229 165.756 95.4401 163.482C93.1659 161.216 92.0288 158.942 92.0288 155.54C92.0288 152.137 93.1572 149.863 94.303 147.597ZM349.495 253.155H30.505C24.8109 253.155 19.1168 255.429 14.5598 259.969C10.0028 264.508 7.71997 269.048 7.71997 275.853C7.71997 282.667 9.99413 287.206 14.5598 291.746C19.1081 296.286 24.8022 298.56 30.505 298.56H349.495C355.189 298.56 360.883 296.286 365.44 291.746C369.997 287.206 372.28 281.53 372.28 275.862C372.28 269.048 370.006 264.508 365.44 259.969C360.892 255.429 355.198 253.155 349.495 253.155Z" fill="#EE5A24"/>
<path d="M518.68 266H461.08V123.6H409.56V83.6H570.2V123.6H518.68V266ZM663.738 266L658.618 245.84C648.804 261.84 635.151 269.84 617.658 269.84C603.364 269.84 591.631 265.893 582.458 258C573.498 249.893 569.018 238.587 569.018 224.08C569.018 215.12 571.578 207.333 576.698 200.72C582.031 193.893 589.284 189.093 598.458 186.32C610.404 182.907 628.858 180.987 653.818 180.56C653.818 166.48 653.178 159.013 651.898 158.16C650.831 157.307 647.418 156.88 641.658 156.88C638.031 156.88 633.018 157.093 626.618 157.52C616.378 157.947 602.511 159.12 585.018 161.04C583.311 149.52 582.031 137.147 581.178 123.92C592.484 121.573 604.324 119.653 616.698 118.16C629.071 116.453 640.164 115.6 649.978 115.6C667.044 115.6 679.844 118.48 688.378 124.24C696.911 129.787 702.458 137.147 705.018 146.32C707.578 155.493 708.751 167.12 708.538 181.2L708.218 228.24L709.178 266H663.738ZM636.218 234C641.764 234 647.631 232.933 653.818 230.8V207.12H651.258C635.471 207.12 626.724 207.973 625.018 209.68C623.951 210.747 623.098 212.347 622.458 214.48C622.031 216.613 621.818 218.64 621.818 220.56C621.818 225.68 622.991 229.2 625.338 231.12C627.684 233.04 631.311 234 636.218 234ZM834.365 115.6C849.725 115.6 861.885 120.72 870.845 130.96C880.018 140.987 884.605 158.587 884.605 183.76C884.605 202.533 882.792 217.893 879.165 229.84C875.538 241.573 871.378 249.36 866.685 253.2C861.992 257.04 853.778 260.133 842.045 262.48C830.525 264.827 818.578 266 806.205 266C802.578 266 796.498 265.787 787.965 265.36V310.8L733.245 313.04V118.8H778.045L783.485 141.52C789.032 133.627 796.072 127.333 804.605 122.64C813.352 117.947 823.272 115.6 834.365 115.6ZM821.565 226.96C823.912 225.253 825.618 220.453 826.685 212.56C827.752 204.453 828.285 196.773 828.285 189.52C828.285 177.573 826.792 168.72 823.805 162.96C820.818 157.2 814.845 154.32 805.885 154.32C799.485 154.32 793.512 154.96 787.965 156.24V227.28L796.925 228.24C799.698 228.453 803.645 228.56 808.765 228.56C816.018 228.56 820.285 228.027 821.565 226.96ZM1144.14 266H1090.38L1086.22 165.52C1085.58 145.68 1084.83 130.64 1083.98 120.4H1083.02C1080.46 128.507 1077.47 141.093 1074.06 158.16L1072.46 166.16L1050.38 266H996.618L978.058 176.08L974.858 160.08C970.378 140.24 967.284 127.013 965.578 120.4H964.618C963.764 131.067 963.018 148.453 962.378 172.56C962.164 174.053 962.058 176.4 962.058 179.6L959.178 266H905.098L912.778 83.6H1004.3L1019.98 162.32L1023.82 183.44C1025.52 176.827 1027.12 169.467 1028.62 161.36L1043.34 83.6H1136.78L1144.14 266ZM1258.78 227.6C1264.11 227.6 1274.03 227.067 1288.54 226C1290.46 226 1293.98 225.787 1299.1 225.36L1303.9 258.32C1287.47 266 1266.14 269.84 1239.9 269.84C1215.36 269.84 1196.48 263.653 1183.26 251.28C1170.24 238.907 1163.74 220.24 1163.74 195.28C1163.74 182.48 1165.34 170.107 1168.54 158.16C1171.95 146.213 1175.79 137.893 1180.06 133.2C1184.54 128.507 1192.86 124.453 1205.02 121.04C1217.18 117.627 1229.23 115.92 1241.18 115.92C1260.38 115.92 1274.78 119.333 1284.38 126.16C1293.98 132.987 1300.27 142.48 1303.26 154.64C1306.24 166.587 1307.74 182.693 1307.74 202.96C1293.23 203.813 1279.04 204.24 1265.18 204.24H1219.74C1219.74 211.067 1221.12 216.187 1223.9 219.6C1226.88 223.013 1231.04 225.253 1236.38 226.32C1241.71 227.173 1249.18 227.6 1258.78 227.6ZM1222.94 154C1221.66 154.64 1220.7 157.413 1220.06 162.32C1219.42 167.227 1218.99 172.773 1218.78 178.96H1235.42C1245.44 178.96 1252.7 178.853 1257.18 178.64C1257.18 168.4 1255.68 161.147 1252.7 156.88C1249.92 152.613 1245.02 150.48 1237.98 150.48C1232.22 150.48 1227.2 151.653 1222.94 154ZM1469.4 128.08C1471.32 130.427 1472.7 136.293 1473.56 145.68C1474.62 155.067 1475.16 169.36 1475.16 188.56V266H1420.44V189.2V176.08C1420.44 169.253 1419.9 164.987 1418.84 163.28C1417.13 161.147 1413.18 160.08 1407 160.08C1404.01 160.08 1401.77 160.187 1400.28 160.4C1394.3 160.613 1388.12 162 1381.72 164.56V266H1327V118.8H1371.48L1377.56 143.44C1392.92 124.88 1411.26 115.6 1432.6 115.6C1440.28 115.6 1447.42 116.667 1454.04 118.8C1460.86 120.933 1465.98 124.027 1469.4 128.08ZM1647.63 118.8V266H1603.15L1597.07 241.36C1581.71 259.92 1563.37 269.2 1542.03 269.2C1534.35 269.2 1527.1 268.133 1520.27 266C1513.66 263.867 1508.65 260.773 1505.23 256.72C1503.31 254.373 1501.82 248.507 1500.75 239.12C1499.9 229.733 1499.47 215.44 1499.47 196.24V118.8H1554.19V195.6C1554.19 199.867 1554.3 204.88 1554.51 210.64C1554.73 216.4 1555.37 220.027 1556.43 221.52C1557.93 223.653 1562.19 224.72 1569.23 224.72L1574.35 224.4C1580.33 224.187 1586.51 222.8 1592.91 220.24V118.8H1647.63Z" fill="#EE5A24"/>
</g>
<defs>
<clipPath id="clip0_2_4">
<rect width="1661" height="314" fill="white"/>
</clipPath>
</defs>
</svg>
