<svg width="512" height="512" viewBox="0 0 512 512" fill="none" xmlns="http://www.w3.org/2000/svg">
<g clip-path="url(#clip0_1_2)">
<rect width="512" height="512" fill="white"/>
<rect width="527" height="607" fill="#EE5A24"/>
<path d="M96.505 335.457H415.495C421.189 335.457 426.883 333.182 431.44 328.643C435.997 324.103 438.28 318.426 438.28 312.758C438.28 305.945 435.997 301.405 431.44 296.865C426.883 292.326 422.326 290.052 415.495 290.052H413.212C408.655 259.411 396.13 232.156 375.628 208.329C355.117 184.494 330.058 168.601 300.433 159.522C301.57 157.248 301.57 154.982 301.57 153.845C301.57 141.355 297.013 130.01 287.899 122.059C279.922 112.98 268.534 108.44 256 108.44C243.466 108.44 232.078 112.98 224.101 122.068C216.124 131.138 210.43 141.355 210.43 153.836V160.65C181.187 168.718 155.011 185.318 135.244 208.329C114.733 232.165 103.345 259.402 98.7878 290.052H96.505C93.085 290.052 90.8109 291.18 87.391 292.326C83.9711 293.454 81.6969 295.728 80.5598 296.865C78.277 299.131 77.1399 301.405 76.0028 303.67C74.5785 306.49 73.7988 309.592 73.72 312.75C73.72 318.426 76.0028 324.103 80.5598 328.643C85.1168 333.182 90.8022 335.457 96.505 335.457ZM256 131.138C261.694 131.138 267.397 133.412 271.954 137.952C276.511 142.492 278.785 147.031 278.785 153.836V154.982C274.228 154.982 270.808 153.845 267.397 153.845H244.612C241.192 153.845 236.626 154.973 233.215 154.973V153.845C233.215 148.168 235.498 142.492 240.055 137.952C244.612 133.412 250.297 131.138 256 131.138ZM160.303 252.597C167.143 241.244 177.394 231.028 187.645 221.948C197.896 212.869 211.567 207.192 225.238 203.79H228.658C232.078 203.79 234.352 204.918 236.635 207.192C238.909 209.458 240.055 211.732 240.055 215.134C240.055 217.409 240.055 218.546 238.909 220.811C237.772 221.94 236.635 224.214 235.498 225.351C234.352 226.488 232.078 227.625 230.941 227.625C224.101 229.89 217.27 232.165 210.43 236.704C204.102 239.924 198.332 244.138 193.339 249.186C187.882 253.637 183.254 259.018 179.668 265.079C178.531 266.208 178.531 267.353 177.394 268.482C176.257 269.619 175.111 270.756 173.974 270.756C172.837 271.884 170.554 271.884 169.417 271.884C165.997 271.884 163.723 270.756 161.44 268.482C159.166 266.216 158.029 263.942 158.029 260.54C158.029 257.137 159.157 254.863 160.303 252.597ZM415.495 358.155H96.505C90.8109 358.155 85.1168 360.429 80.5598 364.969C76.0028 369.508 73.72 374.048 73.72 380.853C73.72 387.667 75.9941 392.206 80.5598 396.746C85.1081 401.286 90.8022 403.56 96.505 403.56H415.495C421.189 403.56 426.883 401.286 431.44 396.746C435.997 392.206 438.28 386.53 438.28 380.862C438.28 374.048 436.006 369.508 431.44 364.969C426.892 360.429 421.198 358.155 415.495 358.155Z" fill="white"/>
</g>
<defs>
<clipPath id="clip0_1_2">
<rect width="512" height="512" fill="white"/>
</clipPath>
</defs>
</svg>
